<?xml version="1.0" encoding="UTF-8"?>
<svg xmlns="http://www.w3.org/2000/svg" width="1506" height="1506" viewBox="0 0 1506 1506" preserveAspectRatio="xMidYMid meet">
  <g transform="translate(0,0)">
    <path d="M 942 630 L 941 631 L 940 632 L 940 633 L 939 634 L 939 635 L 939 636 L 938 637 L 938 638 L 938 639 L 938 640 L 937 641 L 937 642 L 936 643 L 936 644 L 936 645 L 935 646 L 935 647 L 935 648 L 935 649 L 934 650 L 934 651 L 933 652 L 933 653 L 933 654 L 933 655 L 932 656 L 932 657 L 932 658 L 932 659 L 931 660 L 931 661 L 930 662 L 930 663 L 930 664 L 930 665 L 929 666 L 929 667 L 929 668 L 929 669 L 928 670 L 928 671 L 927 672 L 927 673 L 927 674 L 927 675 L 926 676 L 926 677 L 926 678 L 926 679 L 927 680 L 927 681 L 928 682 L 929 683 L 929 684 L 928 685 L 927 685 L 926 685 L 925 685 L 924 685 L 923 685 L 922 685 L 921 685 L 920 685 L 919 685 L 918 685 L 917 685 L 916 685 L 915 685 L 914 685 L 913 685 L 912 685 L 911 685 L 910 686 L 910 687 L 909 688 L 909 689 L 909 690 L 909 691 L 910 692 L 911 693 L 912 693 L 913 693 L 914 693 L 915 693 L 916 693 L 917 693 L 918 693 L 919 693 L 920 693 L 921 693 L 922 693 L 923 693 L 924 693 L 925 693 L 926 693 L 927 693 L 928 693 L 929 692 L 930 692 L 931 692 L 932 692 L 933 692 L 934 692 L 935 692 L 936 692 L 937 692 L 938 692 L 939 693 L 940 693 L 941 694 L 942 695 L 942 696 L 941 697 L 940 698 L 939 698 L 938 698 L 937 698 L 936 698 L 935 698 L 934 698 L 933 698 L 932 698 L 931 698 L 930 698 L 929 698 L 928 698 L 927 698 L 926 698 L 925 698 L 924 698 L 923 698 L 922 698 L 921 698 L 920 699 L 920 700 L 919 701 L 919 702 L 919 703 L 918 704 L 918 705 L 917 706 L 917 707 L 917 708 L 917 709 L 917 710 L 917 711 L 917 712 L 917 713 L 917 714 L 916 715 L 916 716 L 916 717 L 916 718 L 916 719 L 915 720 L 915 721 L 914 722 L 914 723 L 914 724 L 914 725 L 914 726 L 914 727 L 913 728 L 913 729 L 913 730 L 913 731 L 913 732 L 913 733 L 913 734 L 914 735 L 914 736 L 914 737 L 914 738 L 915 739 L 916 740 L 916 741 L 916 742 L 917 743 L 918 744 L 919 745 L 920 746 L 921 747 L 922 748 L 923 749 L 924 750 L 925 751 L 926 751 L 927 752 L 928 753 L 929 754 L 930 755 L 931 756 L 932 757 L 933 757 L 934 758 L 935 759 L 936 760 L 937 761 L 938 762 L 939 763 L 940 764 L 941 765 L 942 765 L 943 766 L 944 767 L 945 768 L 946 769 L 947 770 L 948 771 L 949 772 L 950 773 L 951 773 L 952 774 L 953 775 L 954 776 L 955 776 L 956 777 L 957 778 L 958 779 L 959 780 L 960 781 L 961 782 L 962 782 L 963 783 L 964 784 L 965 785 L 966 786 L 967 787 L 968 788 L 969 788 L 970 789 L 971 790 L 972 791 L 973 792 L 974 792 L 975 793 L 976 794 L 977 795 L 978 796 L 979 797 L 980 797 L 981 798 L 982 799 L 983 800 L 984 801 L 985 801 L 986 802 L 987 803 L 988 804 L 989 804 L 990 805 L 991 806 L 992 807 L 993 807 L 994 808 L 995 809 L 996 810 L 997 811 L 998 811 L 999 812 L 1000 813 L 1001 814 L 1002 815 L 1003 815 L 1004 816 L 1005 817 L 1006 818 L 1007 819 L 1008 819 L 1009 820 L 1010 821 L 1011 822 L 1011 823 L 1012 824 L 1012 825 L 1011 826 L 1011 827 L 1010 828 L 1009 829 L 1008 829 L 1007 829 L 1006 830 L 1005 830 L 1004 831 L 1003 831 L 1002 831 L 1001 832 L 1000 832 L 999 832 L 998 832 L 997 833 L 996 833 L 995 834 L 994 834 L 993 835 L 992 835 L 991 835 L 990 835 L 989 836 L 988 836 L 987 837 L 986 837 L 985 837 L 984 838 L 983 838 L 982 838 L 981 839 L 980 839 L 979 840 L 978 840 L 977 840 L 976 841 L 975 841 L 974 841 L 973 842 L 972 842 L 971 842 L 970 843 L 969 843 L 968 843 L 967 844 L 966 844 L 965 844 L 964 845 L 963 845 L 962 846 L 961 846 L 960 846 L 959 847 L 958 847 L 957 847 L 956 848 L 955 848 L 954 848 L 953 849 L 952 849 L 951 850 L 950 850 L 949 850 L 948 851 L 947 851 L 946 851 L 945 852 L 944 852 L 943 853 L 942 853 L 941 853 L 940 854 L 939 854 L 938 854 L 937 855 L 936 855 L 935 856 L 934 856 L 933 856 L 932 856 L 931 857 L 930 857 L 929 857 L 928 858 L 927 858 L 926 859 L 925 859 L 924 859 L 923 860 L 922 860 L 921 860 L 920 861 L 919 861 L 918 862 L 917 862 L 916 862 L 915 863 L 914 863 L 913 863 L 912 864 L 911 864 L 910 865 L 909 865 L 908 865 L 907 866 L 906 866 L 905 866 L 904 867 L 903 867 L 902 868 L 901 868 L 900 868 L 899 869 L 898 869 L 897 869 L 896 870 L 895 870 L 894 871 L 893 871 L 892 871 L 891 872 L 890 872 L 889 872 L 888 873 L 887 873 L 886 874 L 885 874 L 884 875 L 883 875 L 882 875 L 881 876 L 880 876 L 879 876 L 878 877 L 877 877 L 876 878 L 875 878 L 874 878 L 873 879 L 872 879 L 871 880 L 870 880 L 869 881 L 868 881 L 867 882 L 866 883 L 865 884 L 864 884 L 863 885 L 863 886 L 862 887 L 861 888 L 860 889 L 860 890 L 860 891 L 859 892 L 858 893 L 858 894 L 858 895 L 857 896 L 857 897 L 857 898 L 857 899 L 856 900 L 856 901 L 855 902 L 855 903 L 855 904 L 854 905 L 854 906 L 854 907 L 854 908 L 853 909 L 853 910 L 853 911 L 852 912 L 852 913 L 852 914 L 851 915 L 851 916 L 851 917 L 851 918 L 850 919 L 850 920 L 850 921 L 849 922 L 849 923 L 849 924 L 848 925 L 848 926 L 848 927 L 848 928 L 847 929 L 847 930 L 847 931 L 846 932 L 846 933 L 846 934 L 845 935 L 845 936 L 845 937 L 845 938 L 844 939 L 844 940 L 844 941 L 844 942 L 843 943 L 843 944 L 843 945 L 842 946 L 841 947 L 840 948 L 839 948 L 838 948 L 837 948 L 836 948 L 835 948 L 834 948 L 833 948 L 832 948 L 831 948 L 830 948 L 829 948 L 828 949 L 827 949 L 826 949 L 825 949 L 824 949 L 823 949 L 822 950 L 822 951 L 822 952 L 823 953 L 824 954 L 825 954 L 826 954 L 827 954 L 828 954 L 829 954 L 830 954 L 831 954 L 832 954 L 833 954 L 834 954 L 835 954 L 836 954 L 837 955 L 838 956 L 838 957 L 838 958 L 838 959 L 838 960 L 838 961 L 837 962 L 837 963 L 836 964 L 836 965 L 836 966 L 836 967 L 835 968 L 835 969 L 835 970 L 835 971 L 835 972 L 834 973 L 834 974 L 833 975 L 833 976 L 833 977 L 833 978 L 833 979 L 833 980 L 833 981 L 833 982 L 833 983 L 833 984 L 833 985 L 833 986 L 834 987 L 834 988 L 835 989 L 835 990 L 835 991 L 836 992 L 837 993 L 838 994 L 838 995 L 839 996 L 840 996 L 841 997 L 842 997 L 843 998 L 844 998 L 845 998 L 846 999 L 847 999 L 848 999 L 849 999 L 850 999 L 851 999 L 852 999 L 853 999 L 854 999 L 855 999 L 856 999 L 857 999 L 858 999 L 859 998 L 860 998 L 861 998 L 862 997 L 863 997 L 864 997 L 865 996 L 866 995 L 867 995 L 868 995 L 869 994 L 870 994 L 871 994 L 872 993 L 873 993 L 874 992 L 875 992 L 876 991 L 877 991 L 878 991 L 879 990 L 880 990 L 881 989 L 882 989 L 883 989 L 884 988 L 885 988 L 886 988 L 887 987 L 888 987 L 889 986 L 890 986 L 891 985 L 892 985 L 893 985 L 894 984 L 895 984 L 896 983 L 897 983 L 898 983 L 899 982 L 900 982 L 901 982 L 902 981 L 903 981 L 904 981 L 905 980 L 906 979 L 907 979 L 908 979 L 909 978 L 910 978 L 911 978 L 912 977 L 913 977 L 914 976 L 915 976 L 916 976 L 917 975 L 918 975 L 919 975 L 920 974 L 921 973 L 922 973 L 923 973 L 924 972 L 925 972 L 926 972 L 927 971 L 928 971 L 929 970 L 930 970 L 931 970 L 932 969 L 933 969 L 934 969 L 935 968 L 936 967 L 937 967 L 938 967 L 939 967 L 940 966 L 941 966 L 942 966 L 943 965 L 944 964 L 945 964 L 946 964 L 947 963 L 948 963 L 949 963 L 950 962 L 951 962 L 952 961 L 953 961 L 954 961 L 955 960 L 956 960 L 957 960 L 958 959 L 959 959 L 960 958 L 961 958 L 962 957 L 963 957 L 964 957 L 965 957 L 966 956 L 967 956 L 968 955 L 969 955 L 970 955 L 971 954 L 972 954 L 973 954 L 974 953 L 975 953 L 976 953 L 977 952 L 978 952 L 979 952 L 980 952 L 981 952 L 982 952 L 983 952 L 984 952 L 985 952 L 986 952 L 987 952 L 988 952 L 989 952 L 990 952 L 991 952 L 992 952 L 993 952 L 994 952 L 995 952 L 996 952 L 997 952 L 998 952 L 999 952 L 1000 952 L 1001 952 L 1002 952 L 1003 952 L 1004 952 L 1005 952 L 1006 952 L 1007 952 L 1008 952 L 1009 952 L 1010 952 L 1011 952 L 1012 952 L 1013 952 L 1014 952 L 1015 952 L 1016 952 L 1017 952 L 1018 952 L 1019 952 L 1020 952 L 1021 952 L 1022 952 L 1023 952 L 1024 952 L 1025 952 L 1026 952 L 1027 952 L 1028 952 L 1029 952 L 1030 952 L 1031 952 L 1032 952 L 1033 952 L 1034 952 L 1035 952 L 1036 952 L 1037 952 L 1038 952 L 1039 952 L 1040 952 L 1041 952 L 1042 952 L 1043 952 L 1044 952 L 1045 952 L 1046 952 L 1047 952 L 1048 952 L 1049 952 L 1050 952 L 1051 951 L 1052 951 L 1053 950 L 1053 949 L 1053 948 L 1053 947 L 1053 946 L 1052 945 L 1051 944 L 1050 944 L 1049 944 L 1048 944 L 1047 944 L 1046 944 L 1045 944 L 1044 944 L 1043 944 L 1042 944 L 1041 944 L 1040 944 L 1039 944 L 1038 944 L 1037 944 L 1036 944 L 1035 944 L 1034 944 L 1033 944 L 1032 944 L 1031 944 L 1030 944 L 1029 944 L 1028 944 L 1027 944 L 1026 943 L 1025 943 L 1024 943 L 1023 943 L 1022 943 L 1021 943 L 1020 943 L 1019 943 L 1018 943 L 1017 943 L 1016 943 L 1015 943 L 1014 943 L 1013 943 L 1012 943 L 1011 943 L 1010 943 L 1009 943 L 1008 943 L 1007 943 L 1006 943 L 1005 943 L 1004 942 L 1004 941 L 1005 940 L 1006 940 L 1007 939 L 1008 939 L 1009 938 L 1010 938 L 1011 938 L 1012 937 L 1013 937 L 1014 936 L 1015 936 L 1016 935 L 1017 935 L 1018 935 L 1019 935 L 1020 934 L 1021 934 L 1022 933 L 1023 933 L 1024 932 L 1025 932 L 1026 932 L 1027 931 L 1028 931 L 1029 931 L 1030 930 L 1031 930 L 1032 929 L 1033 929 L 1034 929 L 1035 928 L 1036 928 L 1037 927 L 1038 927 L 1039 926 L 1040 926 L 1041 926 L 1042 925 L 1043 925 L 1044 925 L 1045 924 L 1046 923 L 1047 923 L 1048 923 L 1049 923 L 1050 922 L 1051 922 L 1052 921 L 1053 921 L 1054 920 L 1055 920 L 1056 920 L 1057 919 L 1058 919 L 1059 919 L 1060 918 L 1061 917 L 1062 917 L 1063 917 L 1064 917 L 1065 916 L 1066 916 L 1067 916 L 1068 915 L 1069 914 L 1070 914 L 1071 914 L 1072 913 L 1073 913 L 1074 913 L 1075 912 L 1076 912 L 1077 911 L 1078 911 L 1079 911 L 1080 910 L 1081 910 L 1082 910 L 1083 909 L 1084 909 L 1085 908 L 1086 908 L 1087 907 L 1088 907 L 1089 907 L 1090 907 L 1091 906 L 1092 906 L 1093 905 L 1094 905 L 1095 904 L 1096 904 L 1097 904 L 1098 903 L 1099 903 L 1100 903 L 1101 902 L 1102 902 L 1103 901 L 1104 901 L 1105 901 L 1106 900 L 1107 900 L 1108 899 L 1109 898 L 1110 898 L 1111 898 L 1112 897 L 1113 897 L 1114 897 L 1115 896 L 1116 895 L 1117 895 L 1118 895 L 1119 894 L 1120 894 L 1121 893 L 1122 893 L 1123 893 L 1124 893 L 1125 893 L 1126 893 L 1127 893 L 1128 892 L 1129 892 L 1130 892 L 1131 892 L 1132 892 L 1133 892 L 1134 892 L 1135 892 L 1136 892 L 1137 892 L 1138 892 L 1139 892 L 1140 892 L 1141 892 L 1142 893 L 1143 893 L 1144 893 L 1145 893 L 1146 893 L 1147 893 L 1148 893 L 1149 893 L 1150 893 L 1151 893 L 1152 893 L 1153 893 L 1154 893 L 1155 893 L 1156 893 L 1157 893 L 1158 893 L 1159 892 L 1159 891 L 1160 890 L 1160 889 L 1160 888 L 1160 887 L 1160 886 L 1160 885 L 1160 884 L 1160 883 L 1160 882 L 1160 881 L 1159 880 L 1158 879 L 1157 878 L 1156 878 L 1155 878 L 1154 878 L 1153 878 L 1152 878 L 1151 878 L 1150 878 L 1149 878 L 1148 878 L 1147 878 L 1146 878 L 1145 878 L 1144 878 L 1143 878 L 1142 878 L 1141 878 L 1140 878 L 1139 878 L 1138 878 L 1137 877 L 1137 876 L 1137 875 L 1138 874 L 1139 874 L 1140 873 L 1141 872 L 1141 871 L 1142 870 L 1142 869 L 1143 868 L 1144 867 L 1144 866 L 1144 865 L 1145 864 L 1145 863 L 1145 862 L 1146 861 L 1147 860 L 1147 859 L 1147 858 L 1147 857 L 1147 856 L 1148 855 L 1148 854 L 1148 853 L 1148 852 L 1148 851 L 1148 850 L 1149 849 L 1149 848 L 1149 847 L 1149 846 L 1149 845 L 1149 844 L 1149 843 L 1149 842 L 1149 841 L 1149 840 L 1149 839 L 1149 838 L 1149 837 L 1149 836 L 1149 835 L 1149 834 L 1148 833 L 1148 832 L 1148 831 L 1148 830 L 1148 829 L 1148 828 L 1148 827 L 1148 826 L 1148 825 L 1148 824 L 1148 823 L 1149 822 L 1150 821 L 1151 821 L 1152 821 L 1153 821 L 1154 821 L 1155 821 L 1156 821 L 1157 821 L 1158 820 L 1159 819 L 1160 818 L 1160 817 L 1160 816 L 1160 815 L 1159 814 L 1159 813 L 1158 812 L 1157 812 L 1156 812 L 1155 812 L 1154 811 L 1153 811 L 1152 811 L 1151 811 L 1150 811 L 1149 811 L 1148 811 L 1147 811 L 1146 811 L 1145 811 L 1144 810 L 1143 809 L 1142 808 L 1142 807 L 1142 806 L 1141 805 L 1141 804 L 1140 803 L 1139 802 L 1139 801 L 1138 800 L 1137 799 L 1136 798 L 1136 797 L 1135 796 L 1134 795 L 1133 794 L 1132 793 L 1132 792 L 1131 791 L 1130 791 L 1129 790 L 1128 789 L 1127 788 L 1126 787 L 1125 786 L 1124 785 L 1123 784 L 1122 783 L 1121 782 L 1120 781 L 1119 780 L 1118 779 L 1117 778 L 1116 777 L 1115 776 L 1114 775 L 1113 774 L 1112 773 L 1111 772 L 1110 771 L 1109 770 L 1108 769 L 1107 768 L 1107 767 L 1106 766 L 1105 765 L 1104 764 L 1103 763 L 1102 762 L 1101 761 L 1100 760 L 1099 759 L 1099 758 L 1100 757 L 1101 757 L 1102 757 L 1103 757 L 1104 757 L 1105 757 L 1106 757 L 1107 757 L 1108 757 L 1109 757 L 1110 757 L 1111 757 L 1112 757 L 1113 756 L 1113 755 L 1113 754 L 1113 753 L 1113 752 L 1113 751 L 1112 750 L 1111 750 L 1110 750 L 1109 750 L 1108 750 L 1107 750 L 1106 750 L 1105 750 L 1104 750 L 1103 750 L 1102 750 L 1101 750 L 1100 750 L 1099 750 L 1098 750 L 1097 750 L 1096 750 L 1095 750 L 1094 750 L 1093 750 L 1092 750 L 1091 750 L 1090 750 L 1089 750 L 1088 750 L 1087 750 L 1086 750 L 1085 750 L 1084 749 L 1083 749 L 1082 749 L 1081 748 L 1080 747 L 1079 747 L 1078 746 L 1077 745 L 1076 744 L 1075 743 L 1074 742 L 1073 741 L 1072 740 L 1071 739 L 1070 739 L 1069 738 L 1068 737 L 1067 736 L 1066 735 L 1065 734 L 1064 733 L 1063 732 L 1062 732 L 1061 731 L 1060 730 L 1059 729 L 1058 728 L 1057 727 L 1057 726 L 1056 725 L 1055 724 L 1054 724 L 1053 723 L 1052 722 L 1052 721 L 1053 720 L 1054 720 L 1055 720 L 1056 720 L 1057 720 L 1058 720 L 1059 720 L 1060 719 L 1061 719 L 1062 719 L 1063 719 L 1064 719 L 1065 719 L 1066 719 L 1067 719 L 1068 719 L 1069 719 L 1070 719 L 1071 720 L 1072 720 L 1073 720 L 1074 720 L 1075 720 L 1076 720 L 1077 720 L 1078 720 L 1079 720 L 1080 720 L 1081 719 L 1082 718 L 1082 717 L 1082 716 L 1082 715 L 1082 714 L 1082 713 L 1082 712 L 1082 711 L 1082 710 L 1082 709 L 1082 708 L 1082 707 L 1081 706 L 1080 706 L 1079 706 L 1078 706 L 1077 706 L 1076 706 L 1075 706 L 1074 706 L 1073 706 L 1072 706 L 1071 706 L 1070 706 L 1069 706 L 1068 706 L 1067 706 L 1066 706 L 1065 706 L 1064 706 L 1063 706 L 1062 706 L 1061 706 L 1060 706 L 1059 706 L 1058 706 L 1057 706 L 1056 706 L 1055 706 L 1054 706 L 1053 706 L 1052 706 L 1051 706 L 1050 706 L 1049 706 L 1048 706 L 1047 706 L 1046 706 L 1045 706 L 1044 706 L 1043 706 L 1042 706 L 1041 706 L 1040 706 L 1039 706 L 1038 706 L 1037 706 L 1036 706 L 1035 706 L 1034 706 L 1033 705 L 1032 705 L 1031 704 L 1030 703 L 1029 702 L 1028 701 L 1027 701 L 1026 700 L 1025 699 L 1024 698 L 1023 697 L 1022 697 L 1021 696 L 1020 695 L 1019 694 L 1018 693 L 1017 692 L 1016 691 L 1015 690 L 1015 689 L 1016 688 L 1017 687 L 1018 687 L 1019 688 L 1020 688 L 1021 688 L 1022 688 L 1023 688 L 1024 688 L 1025 688 L 1026 688 L 1027 688 L 1028 688 L 1029 688 L 1030 688 L 1031 689 L 1032 689 L 1033 688 L 1034 688 L 1035 687 L 1035 686 L 1035 685 L 1035 684 L 1035 683 L 1034 682 L 1033 681 L 1032 681 L 1031 681 L 1030 681 L 1029 681 L 1028 681 L 1027 681 L 1026 681 L 1025 681 L 1024 681 L 1023 681 L 1022 681 L 1021 681 L 1020 681 L 1019 681 L 1018 681 L 1017 681 L 1016 681 L 1015 681 L 1014 680 L 1013 680 L 1012 680 L 1011 680 L 1010 680 L 1009 680 L 1008 680 L 1007 680 L 1006 681 L 1005 681 L 1004 680 L 1003 680 L 1002 679 L 1001 678 L 1000 677 L 999 676 L 998 675 L 997 674 L 996 674 L 995 673 L 994 672 L 993 671 L 992 670 L 991 669 L 990 668 L 989 668 L 988 667 L 987 666 L 986 665 L 985 664 L 984 663 L 983 662 L 982 662 L 981 661 L 980 660 L 979 659 L 978 658 L 977 657 L 976 657 L 975 656 L 974 655 L 973 654 L 972 653 L 971 652 L 970 651 L 969 650 L 968 650 L 967 649 L 966 648 L 965 647 L 964 646 L 963 645 L 962 645 L 961 644 L 960 643 L 959 642 L 958 641 L 957 641 L 956 640 L 955 639 L 954 638 L 953 637 L 952 636 L 951 635 L 950 635 L 949 634 L 948 633 L 947 632 L 946 631 L 945 630 L 944 630 L 943 630 Z M 664 504 L 663 505 L 662 505 L 661 505 L 660 506 L 659 506 L 658 506 L 657 507 L 656 507 L 655 507 L 654 508 L 653 508 L 652 508 L 651 509 L 650 509 L 649 509 L 648 510 L 647 510 L 646 510 L 645 511 L 644 511 L 643 511 L 642 511 L 641 512 L 640 512 L 639 513 L 638 513 L 637 513 L 636 514 L 635 514 L 634 514 L 633 515 L 632 515 L 631 516 L 630 516 L 629 516 L 628 516 L 627 517 L 626 517 L 625 517 L 624 518 L 623 518 L 622 518 L 621 519 L 620 519 L 619 519 L 618 520 L 617 520 L 616 520 L 615 521 L 614 521 L 613 521 L 612 522 L 611 522 L 610 523 L 609 523 L 608 523 L 607 523 L 606 524 L 605 524 L 604 524 L 603 525 L 602 525 L 601 526 L 600 526 L 599 526 L 598 527 L 597 527 L 596 527 L 595 527 L 594 528 L 593 528 L 592 529 L 591 529 L 590 529 L 589 529 L 588 530 L 587 530 L 586 530 L 585 531 L 584 531 L 583 532 L 582 532 L 581 532 L 580 533 L 579 533 L 578 533 L 577 534 L 576 534 L 575 534 L 574 535 L 573 535 L 572 535 L 571 536 L 570 536 L 569 536 L 568 536 L 567 537 L 566 537 L 565 538 L 564 538 L 563 538 L 562 539 L 561 539 L 560 539 L 559 540 L 558 540 L 557 540 L 556 541 L 555 541 L 554 541 L 553 542 L 552 542 L 551 542 L 550 543 L 549 543 L 548 543 L 547 544 L 546 544 L 545 544 L 544 545 L 543 545 L 542 545 L 541 546 L 540 546 L 539 546 L 538 547 L 537 547 L 536 547 L 535 548 L 534 548 L 533 548 L 532 549 L 531 549 L 530 549 L 529 550 L 528 550 L 527 551 L 526 551 L 525 551 L 524 551 L 523 552 L 522 552 L 521 552 L 520 553 L 519 553 L 518 554 L 517 554 L 516 554 L 515 554 L 514 555 L 513 555 L 512 555 L 511 556 L 510 556 L 509 557 L 508 557 L 507 557 L 506 557 L 505 558 L 504 558 L 503 558 L 502 559 L 501 559 L 500 560 L 499 560 L 498 560 L 497 560 L 496 561 L 495 561 L 494 561 L 493 562 L 492 562 L 491 563 L 490 563 L 489 563 L 488 563 L 487 564 L 486 564 L 485 564 L 484 565 L 483 565 L 482 566 L 481 566 L 480 566 L 479 566 L 478 567 L 477 567 L 476 567 L 475 568 L 474 568 L 473 569 L 472 569 L 471 569 L 470 569 L 469 570 L 468 570 L 467 570 L 466 571 L 465 571 L 464 572 L 463 572 L 462 572 L 461 573 L 460 573 L 459 573 L 458 573 L 457 573 L 456 573 L 455 573 L 454 573 L 453 573 L 452 573 L 451 573 L 450 573 L 449 573 L 448 573 L 447 573 L 446 573 L 445 573 L 444 573 L 443 573 L 442 573 L 441 573 L 440 573 L 439 573 L 438 573 L 437 573 L 436 573 L 435 573 L 434 573 L 433 573 L 432 573 L 431 573 L 430 573 L 429 573 L 428 573 L 427 573 L 426 573 L 425 573 L 424 573 L 423 573 L 422 573 L 421 573 L 420 573 L 419 573 L 418 572 L 417 572 L 416 572 L 415 572 L 414 572 L 413 572 L 412 572 L 411 572 L 410 572 L 409 572 L 408 572 L 407 572 L 406 572 L 405 572 L 404 572 L 403 572 L 402 572 L 401 572 L 400 572 L 399 572 L 398 572 L 397 572 L 396 572 L 395 572 L 394 572 L 393 572 L 392 572 L 391 572 L 390 572 L 389 572 L 388 572 L 387 572 L 386 572 L 385 572 L 384 573 L 383 573 L 382 574 L 382 575 L 382 576 L 382 577 L 382 578 L 383 579 L 384 580 L 385 581 L 386 581 L 387 581 L 388 581 L 389 581 L 390 581 L 391 581 L 392 581 L 393 581 L 394 581 L 395 581 L 396 581 L 397 581 L 398 581 L 399 581 L 400 581 L 401 581 L 402 581 L 403 581 L 404 581 L 405 581 L 406 580 L 407 580 L 408 580 L 409 580 L 410 580 L 411 580 L 412 580 L 413 580 L 414 580 L 415 580 L 416 580 L 417 580 L 418 580 L 419 580 L 420 580 L 421 580 L 422 580 L 423 580 L 424 580 L 425 581 L 426 581 L 427 581 L 428 582 L 428 583 L 427 584 L 426 584 L 425 584 L 424 584 L 423 584 L 422 585 L 421 585 L 420 585 L 419 585 L 418 585 L 417 585 L 416 585 L 415 585 L 414 585 L 413 586 L 412 586 L 411 586 L 410 586 L 409 587 L 408 587 L 407 587 L 406 587 L 405 588 L 404 588 L 403 588 L 402 588 L 401 589 L 400 589 L 399 589 L 398 590 L 397 590 L 396 591 L 395 591 L 394 591 L 393 592 L 392 592 L 391 592 L 390 593 L 389 593 L 388 594 L 387 594 L 386 595 L 385 595 L 384 596 L 383 596 L 382 597 L 381 597 L 380 598 L 379 598 L 378 599 L 377 600 L 376 600 L 375 601 L 374 601 L 373 602 L 372 603 L 371 604 L 370 605 L 369 606 L 368 607 L 367 608 L 366 609 L 365 610 L 364 611 L 363 612 L 362 613 L 362 614 L 361 615 L 360 616 L 360 617 L 360 618 L 359 619 L 358 620 L 358 621 L 357 622 L 357 623 L 357 624 L 356 625 L 356 626 L 356 627 L 355 628 L 354 629 L 353 629 L 352 629 L 351 629 L 350 629 L 349 629 L 348 629 L 347 629 L 346 629 L 345 629 L 344 629 L 343 629 L 342 629 L 341 629 L 340 629 L 339 629 L 338 630 L 337 630 L 336 631 L 336 632 L 336 633 L 336 634 L 336 635 L 336 636 L 336 637 L 336 638 L 336 639 L 336 640 L 336 641 L 337 642 L 338 643 L 339 644 L 340 644 L 341 644 L 342 644 L 343 644 L 344 644 L 345 644 L 346 644 L 347 644 L 348 643 L 349 643 L 350 643 L 351 643 L 352 644 L 353 645 L 354 646 L 354 647 L 354 648 L 354 649 L 354 650 L 355 651 L 355 652 L 355 653 L 355 654 L 356 655 L 356 656 L 356 657 L 357 658 L 357 659 L 357 660 L 358 661 L 358 662 L 358 663 L 359 664 L 360 665 L 360 666 L 361 667 L 361 668 L 362 669 L 363 670 L 363 671 L 363 672 L 363 673 L 362 674 L 361 674 L 360 675 L 359 675 L 358 675 L 357 676 L 357 677 L 357 678 L 358 679 L 359 680 L 360 681 L 361 682 L 362 683 L 363 684 L 364 685 L 365 685 L 366 686 L 367 686 L 368 686 L 369 687 L 370 687 L 371 687 L 372 687 L 373 687 L 374 687 L 375 688 L 376 688 L 377 689 L 378 690 L 378 691 L 379 692 L 380 693 L 380 694 L 381 695 L 382 696 L 383 697 L 384 698 L 384 699 L 385 700 L 386 701 L 387 702 L 388 703 L 388 704 L 389 705 L 390 706 L 391 707 L 391 708 L 392 709 L 393 710 L 394 711 L 395 712 L 395 713 L 396 714 L 397 715 L 397 716 L 398 717 L 399 718 L 399 719 L 400 720 L 401 721 L 401 722 L 402 723 L 403 724 L 404 725 L 404 726 L 405 727 L 406 728 L 407 729 L 407 730 L 408 731 L 409 732 L 409 733 L 410 734 L 411 735 L 411 736 L 412 737 L 413 738 L 414 739 L 414 740 L 415 741 L 416 742 L 417 743 L 417 744 L 418 745 L 419 746 L 418 747 L 417 748 L 416 748 L 415 748 L 414 748 L 413 748 L 412 749 L 411 749 L 410 749 L 409 749 L 408 749 L 407 749 L 406 749 L 405 749 L 404 749 L 403 749 L 402 749 L 401 749 L 400 749 L 399 749 L 398 749 L 397 749 L 396 749 L 395 749 L 394 750 L 394 751 L 394 752 L 394 753 L 394 754 L 394 755 L 395 756 L 396 756 L 397 757 L 398 757 L 399 757 L 400 757 L 401 757 L 402 757 L 403 757 L 404 757 L 405 757 L 406 757 L 407 757 L 408 757 L 409 757 L 410 757 L 411 757 L 412 757 L 413 757 L 414 757 L 415 757 L 416 757 L 417 757 L 418 757 L 419 757 L 420 757 L 421 757 L 422 757 L 423 757 L 424 757 L 425 757 L 426 757 L 427 758 L 428 758 L 429 759 L 430 760 L 430 761 L 431 762 L 432 763 L 433 764 L 434 765 L 435 766 L 435 767 L 436 768 L 437 769 L 437 770 L 438 771 L 439 772 L 439 773 L 440 774 L 441 775 L 441 776 L 442 777 L 443 778 L 444 779 L 444 780 L 445 781 L 445 782 L 446 783 L 447 784 L 448 785 L 448 786 L 449 787 L 450 788 L 451 789 L 451 790 L 452 791 L 453 792 L 454 793 L 454 794 L 455 795 L 456 796 L 456 797 L 457 798 L 458 799 L 458 800 L 459 801 L 460 802 L 461 803 L 461 804 L 462 805 L 461 806 L 460 807 L 459 807 L 458 807 L 457 807 L 456 807 L 455 807 L 454 807 L 453 807 L 452 807 L 451 807 L 450 807 L 449 807 L 448 807 L 447 807 L 446 807 L 445 807 L 444 807 L 443 807 L 442 807 L 441 808 L 441 809 L 440 810 L 440 811 L 440 812 L 440 813 L 440 814 L 440 815 L 440 816 L 440 817 L 440 818 L 441 819 L 442 820 L 443 821 L 444 821 L 445 821 L 446 821 L 447 821 L 448 821 L 449 821 L 450 821 L 451 821 L 452 821 L 453 821 L 454 821 L 455 821 L 456 821 L 457 821 L 458 821 L 459 821 L 460 821 L 461 821 L 462 821 L 463 821 L 464 821 L 465 821 L 466 821 L 467 821 L 468 821 L 469 821 L 470 821 L 471 821 L 472 821 L 473 821 L 474 822 L 475 823 L 476 824 L 477 825 L 478 826 L 479 827 L 479 828 L 480 829 L 481 830 L 482 831 L 482 832 L 483 833 L 484 834 L 485 835 L 485 836 L 486 837 L 487 838 L 487 839 L 488 840 L 489 841 L 490 842 L 490 843 L 491 844 L 492 845 L 492 846 L 493 847 L 494 848 L 495 849 L 495 850 L 496 851 L 497 852 L 497 853 L 498 854 L 499 855 L 499 856 L 500 857 L 501 858 L 501 859 L 502 860 L 503 861 L 504 862 L 504 863 L 505 864 L 506 865 L 507 866 L 507 867 L 508 868 L 509 869 L 510 870 L 510 871 L 511 872 L 512 873 L 513 874 L 513 875 L 514 876 L 514 877 L 514 878 L 513 879 L 512 879 L 511 879 L 510 879 L 509 879 L 508 879 L 507 879 L 506 879 L 505 879 L 504 880 L 503 880 L 502 879 L 501 879 L 500 879 L 499 879 L 498 879 L 497 879 L 496 880 L 495 880 L 494 881 L 494 882 L 494 883 L 494 884 L 494 885 L 494 886 L 495 887 L 496 888 L 497 888 L 498 888 L 499 888 L 500 888 L 501 888 L 502 888 L 503 888 L 504 888 L 505 888 L 506 888 L 507 888 L 508 888 L 509 888 L 510 888 L 511 888 L 512 888 L 513 888 L 514 888 L 515 888 L 516 888 L 517 888 L 518 888 L 519 888 L 520 888 L 521 888 L 522 888 L 523 889 L 524 890 L 525 891 L 526 892 L 527 893 L 527 894 L 528 895 L 529 896 L 530 897 L 531 898 L 532 899 L 532 900 L 533 901 L 534 902 L 535 903 L 535 904 L 536 905 L 537 906 L 538 907 L 538 908 L 539 909 L 540 910 L 541 911 L 542 912 L 542 913 L 543 914 L 544 915 L 544 916 L 545 917 L 546 918 L 547 919 L 547 920 L 548 921 L 549 922 L 550 923 L 551 923 L 552 923 L 553 922 L 553 921 L 554 920 L 554 919 L 554 918 L 555 917 L 555 916 L 555 915 L 555 914 L 556 913 L 556 912 L 556 911 L 557 910 L 557 909 L 557 908 L 557 907 L 558 906 L 558 905 L 558 904 L 558 903 L 559 902 L 559 901 L 559 900 L 560 899 L 560 898 L 560 897 L 561 896 L 561 895 L 562 894 L 563 893 L 564 893 L 565 893 L 566 893 L 567 893 L 568 893 L 569 893 L 570 893 L 571 893 L 572 893 L 573 893 L 574 893 L 575 893 L 576 893 L 577 893 L 578 893 L 579 893 L 580 893 L 581 893 L 582 893 L 583 892 L 584 891 L 584 890 L 584 889 L 584 888 L 584 887 L 583 886 L 582 885 L 581 885 L 580 885 L 579 885 L 578 885 L 577 884 L 576 884 L 575 885 L 574 885 L 573 885 L 572 885 L 571 885 L 570 885 L 569 884 L 568 884 L 567 884 L 566 884 L 565 883 L 564 882 L 564 881 L 564 880 L 565 879 L 565 878 L 565 877 L 566 876 L 566 875 L 566 874 L 567 873 L 567 872 L 567 871 L 568 870 L 568 869 L 568 868 L 568 867 L 569 866 L 569 865 L 570 864 L 570 863 L 570 862 L 571 861 L 571 860 L 572 859 L 572 858 L 572 857 L 573 856 L 573 855 L 573 854 L 572 853 L 571 852 L 570 852 L 569 852 L 568 852 L 567 852 L 566 852 L 565 852 L 564 852 L 563 852 L 562 853 L 561 853 L 560 853 L 559 853 L 558 853 L 557 853 L 556 853 L 555 854 L 554 854 L 553 854 L 552 854 L 551 853 L 550 852 L 550 851 L 550 850 L 551 849 L 552 848 L 553 848 L 554 848 L 555 848 L 556 848 L 557 848 L 558 848 L 559 848 L 560 848 L 561 848 L 562 848 L 563 848 L 564 848 L 565 848 L 566 848 L 567 848 L 568 848 L 569 848 L 570 848 L 571 849 L 572 849 L 573 848 L 574 847 L 574 846 L 575 845 L 575 844 L 575 843 L 576 842 L 576 841 L 576 840 L 576 839 L 577 838 L 577 837 L 577 836 L 578 835 L 578 834 L 578 833 L 579 832 L 579 831 L 579 830 L 580 829 L 580 828 L 580 827 L 581 826 L 581 825 L 581 824 L 582 823 L 582 822 L 582 821 L 583 820 L 583 819 L 583 818 L 583 817 L 583 816 L 584 815 L 584 814 L 584 813 L 584 812 L 585 811 L 585 810 L 585 809 L 584 808 L 584 807 L 584 806 L 584 805 L 583 804 L 583 803 L 583 802 L 582 801 L 581 800 L 581 799 L 580 798 L 580 797 L 579 796 L 578 795 L 577 794 L 576 793 L 576 792 L 575 791 L 574 790 L 574 789 L 573 788 L 572 787 L 572 786 L 571 785 L 570 784 L 569 783 L 569 782 L 568 781 L 567 780 L 567 779 L 566 778 L 565 777 L 564 776 L 564 775 L 563 774 L 562 773 L 561 772 L 561 771 L 560 770 L 560 769 L 559 768 L 558 767 L 557 766 L 557 765 L 556 764 L 555 763 L 554 762 L 554 761 L 553 760 L 552 759 L 552 758 L 551 757 L 550 756 L 549 755 L 549 754 L 548 753 L 547 752 L 547 751 L 546 750 L 545 749 L 544 748 L 544 747 L 543 746 L 542 745 L 541 744 L 540 743 L 540 742 L 539 741 L 538 740 L 537 739 L 537 738 L 536 737 L 535 736 L 535 735 L 534 734 L 533 733 L 533 732 L 532 731 L 531 730 L 530 729 L 530 728 L 529 727 L 528 726 L 528 725 L 527 724 L 526 723 L 525 722 L 525 721 L 524 720 L 523 719 L 523 718 L 523 717 L 524 716 L 525 716 L 526 716 L 527 716 L 528 715 L 529 715 L 530 716 L 531 716 L 532 716 L 533 716 L 534 716 L 535 716 L 536 716 L 537 716 L 538 716 L 539 716 L 540 716 L 541 716 L 542 716 L 543 715 L 544 715 L 545 715 L 546 715 L 547 715 L 548 715 L 549 715 L 550 715 L 551 715 L 552 715 L 553 715 L 554 714 L 555 713 L 555 712 L 555 711 L 555 710 L 555 709 L 555 708 L 555 707 L 555 706 L 555 705 L 555 704 L 555 703 L 554 702 L 553 702 L 552 702 L 551 702 L 550 702 L 549 702 L 548 702 L 547 702 L 546 702 L 545 702 L 544 702 L 543 702 L 542 702 L 541 702 L 540 702 L 539 702 L 538 702 L 537 702 L 536 702 L 535 702 L 534 702 L 533 702 L 532 702 L 531 702 L 530 702 L 529 702 L 528 702 L 527 702 L 526 702 L 525 702 L 524 702 L 523 702 L 522 702 L 521 702 L 520 702 L 519 702 L 518 702 L 517 702 L 516 702 L 515 702 L 514 702 L 513 702 L 512 702 L 511 702 L 510 701 L 509 701 L 508 700 L 507 699 L 506 698 L 506 697 L 505 696 L 504 695 L 504 694 L 503 693 L 502 692 L 502 691 L 501 690 L 501 689 L 500 688 L 499 687 L 499 686 L 498 685 L 497 684 L 496 683 L 496 682 L 495 681 L 495 680 L 494 679 L 493 678 L 494 677 L 495 676 L 496 675 L 497 675 L 498 675 L 499 674 L 500 674 L 501 673 L 502 673 L 503 673 L 504 673 L 505 672 L 506 672 L 507 672 L 508 672 L 509 671 L 510 671 L 511 670 L 512 670 L 513 670 L 514 669 L 515 669 L 516 669 L 517 669 L 518 668 L 519 668 L 520 667 L 521 667 L 522 667 L 523 667 L 524 666 L 525 666 L 526 666 L 527 666 L 528 665 L 529 664 L 530 664 L 531 664 L 532 664 L 533 663 L 534 663 L 535 663 L 536 663 L 537 662 L 538 662 L 539 661 L 540 661 L 541 661 L 542 660 L 543 660 L 544 660 L 545 660 L 546 659 L 547 659 L 548 658 L 549 658 L 550 658 L 551 658 L 552 657 L 553 657 L 554 657 L 555 656 L 556 656 L 557 656 L 558 655 L 559 655 L 560 655 L 561 654 L 562 654 L 563 654 L 564 654 L 565 653 L 566 653 L 567 653 L 568 652 L 569 652 L 570 651 L 571 651 L 572 651 L 573 651 L 574 650 L 575 650 L 576 650 L 577 650 L 578 649 L 579 649 L 580 648 L 581 648 L 582 648 L 583 648 L 584 647 L 585 647 L 586 647 L 587 646 L 588 646 L 589 645 L 590 645 L 591 645 L 592 645 L 593 644 L 594 644 L 595 644 L 596 644 L 597 643 L 598 643 L 599 642 L 600 642 L 601 642 L 602 642 L 603 641 L 604 641 L 605 641 L 606 641 L 607 640 L 608 640 L 609 639 L 610 639 L 611 639 L 612 639 L 613 639 L 614 639 L 615 639 L 616 639 L 617 639 L 618 639 L 619 639 L 620 639 L 621 639 L 622 639 L 623 639 L 624 639 L 625 639 L 626 639 L 627 639 L 628 639 L 629 639 L 630 639 L 631 639 L 632 639 L 633 639 L 634 639 L 635 639 L 636 639 L 637 639 L 638 639 L 639 639 L 640 639 L 641 639 L 642 639 L 643 639 L 644 638 L 645 637 L 645 636 L 645 635 L 645 634 L 644 633 L 643 632 L 642 632 L 641 631 L 640 631 L 639 631 L 638 631 L 637 630 L 637 629 L 638 628 L 639 628 L 640 628 L 641 627 L 642 626 L 643 626 L 644 626 L 645 626 L 646 626 L 647 625 L 648 625 L 649 625 L 650 624 L 651 623 L 652 623 L 653 623 L 654 622 L 655 621 L 656 620 L 657 620 L 658 619 L 658 618 L 659 617 L 660 616 L 661 615 L 661 614 L 662 613 L 662 612 L 663 611 L 663 610 L 663 609 L 664 608 L 664 607 L 664 606 L 664 605 L 665 604 L 665 603 L 665 602 L 666 601 L 666 600 L 666 599 L 667 598 L 667 597 L 667 596 L 667 595 L 668 594 L 668 593 L 668 592 L 669 591 L 669 590 L 670 589 L 670 588 L 670 587 L 670 586 L 671 585 L 671 584 L 672 583 L 672 582 L 672 581 L 672 580 L 671 579 L 670 578 L 669 578 L 668 578 L 667 578 L 666 578 L 665 578 L 664 578 L 663 578 L 662 578 L 661 578 L 660 578 L 659 577 L 658 577 L 657 577 L 656 577 L 655 577 L 654 577 L 653 578 L 652 578 L 651 578 L 650 578 L 649 578 L 648 578 L 647 578 L 646 578 L 645 577 L 645 576 L 646 575 L 647 574 L 648 574 L 649 574 L 650 574 L 651 574 L 652 574 L 653 574 L 654 574 L 655 574 L 656 574 L 657 574 L 658 574 L 659 574 L 660 575 L 661 575 L 662 575 L 663 575 L 664 575 L 665 574 L 666 574 L 667 574 L 668 574 L 669 575 L 670 575 L 671 575 L 672 575 L 673 574 L 674 573 L 675 572 L 675 571 L 675 570 L 676 569 L 676 568 L 676 567 L 677 566 L 677 565 L 677 564 L 678 563 L 678 562 L 678 561 L 679 560 L 679 559 L 679 558 L 680 557 L 680 556 L 680 555 L 681 554 L 681 553 L 681 552 L 682 551 L 682 550 L 682 549 L 683 548 L 683 547 L 683 546 L 683 545 L 684 544 L 684 543 L 684 542 L 685 541 L 685 540 L 685 539 L 685 538 L 686 537 L 686 536 L 686 535 L 686 534 L 687 533 L 687 532 L 687 531 L 688 530 L 688 529 L 688 528 L 688 527 L 688 526 L 688 525 L 688 524 L 688 523 L 688 522 L 688 521 L 688 520 L 688 519 L 687 518 L 687 517 L 687 516 L 686 515 L 686 514 L 685 513 L 684 512 L 684 511 L 683 510 L 682 509 L 681 508 L 680 507 L 679 507 L 678 506 L 677 505 L 676 505 L 675 505 L 674 504 L 673 504 L 672 504 L 671 504 L 670 504 L 669 504 L 668 504 L 667 504 L 666 504 L 665 504 Z M 804 438 L 803 439 L 802 439 L 801 439 L 800 439 L 799 439 L 798 439 L 797 440 L 796 441 L 795 441 L 794 441 L 793 442 L 792 443 L 791 444 L 790 445 L 789 446 L 789 447 L 788 448 L 788 449 L 788 450 L 787 451 L 787 452 L 786 453 L 786 454 L 786 455 L 786 456 L 785 457 L 785 458 L 785 459 L 785 460 L 784 461 L 784 462 L 784 463 L 783 464 L 783 465 L 783 466 L 782 467 L 782 468 L 782 469 L 782 470 L 782 471 L 782 472 L 781 473 L 781 474 L 780 475 L 780 476 L 780 477 L 780 478 L 779 479 L 779 480 L 779 481 L 779 482 L 779 483 L 779 484 L 778 485 L 778 486 L 778 487 L 777 488 L 777 489 L 776 490 L 775 491 L 774 491 L 773 491 L 772 491 L 771 491 L 770 491 L 769 491 L 768 491 L 767 491 L 766 491 L 765 491 L 764 491 L 763 491 L 762 491 L 761 491 L 760 491 L 759 491 L 758 491 L 757 492 L 757 493 L 756 494 L 756 495 L 755 496 L 755 497 L 755 498 L 754 499 L 754 500 L 754 501 L 755 502 L 756 502 L 757 503 L 758 503 L 759 503 L 760 503 L 761 503 L 762 503 L 763 503 L 764 503 L 765 503 L 766 503 L 767 503 L 768 502 L 769 502 L 770 502 L 771 503 L 772 504 L 772 505 L 771 506 L 771 507 L 770 508 L 770 509 L 770 510 L 771 511 L 771 512 L 772 513 L 773 513 L 774 512 L 775 512 L 776 513 L 777 514 L 777 515 L 776 516 L 775 516 L 774 516 L 773 516 L 772 516 L 771 517 L 770 518 L 769 519 L 769 520 L 769 521 L 768 522 L 768 523 L 767 524 L 767 525 L 767 526 L 767 527 L 766 528 L 766 529 L 766 530 L 766 531 L 765 532 L 765 533 L 764 534 L 764 535 L 764 536 L 764 537 L 763 538 L 763 539 L 763 540 L 762 541 L 762 542 L 761 543 L 761 544 L 761 545 L 760 546 L 760 547 L 760 548 L 760 549 L 759 550 L 759 551 L 758 552 L 758 553 L 758 554 L 757 555 L 757 556 L 757 557 L 756 558 L 756 559 L 755 560 L 755 561 L 754 562 L 753 563 L 752 563 L 751 563 L 750 563 L 749 563 L 748 563 L 747 563 L 746 563 L 745 563 L 744 563 L 743 563 L 742 563 L 741 563 L 740 563 L 739 563 L 738 563 L 737 563 L 736 563 L 735 563 L 734 563 L 733 563 L 732 563 L 731 563 L 730 564 L 729 565 L 728 566 L 728 567 L 727 568 L 727 569 L 727 570 L 726 571 L 726 572 L 726 573 L 727 574 L 728 575 L 729 575 L 730 575 L 731 575 L 732 575 L 733 575 L 734 575 L 735 575 L 736 575 L 737 575 L 738 575 L 739 575 L 740 575 L 741 575 L 742 575 L 743 575 L 744 575 L 745 575 L 746 575 L 747 575 L 748 575 L 749 575 L 750 576 L 750 577 L 750 578 L 750 579 L 750 580 L 749 581 L 749 582 L 749 583 L 748 584 L 748 585 L 748 586 L 748 587 L 747 588 L 747 589 L 747 590 L 746 591 L 746 592 L 745 593 L 745 594 L 745 595 L 745 596 L 744 597 L 744 598 L 744 599 L 743 600 L 743 601 L 743 602 L 742 603 L 742 604 L 742 605 L 742 606 L 741 607 L 741 608 L 741 609 L 741 610 L 740 611 L 740 612 L 739 613 L 739 614 L 739 615 L 739 616 L 738 617 L 738 618 L 738 619 L 738 620 L 737 621 L 737 622 L 736 623 L 736 624 L 736 625 L 736 626 L 735 627 L 735 628 L 735 629 L 735 630 L 734 631 L 734 632 L 733 633 L 733 634 L 733 635 L 733 636 L 732 637 L 732 638 L 732 639 L 732 640 L 732 641 L 731 642 L 731 643 L 730 644 L 730 645 L 729 646 L 728 647 L 727 647 L 726 647 L 725 647 L 724 647 L 723 647 L 722 647 L 721 647 L 720 647 L 719 647 L 718 647 L 717 647 L 716 647 L 715 647 L 714 647 L 713 647 L 712 647 L 711 647 L 710 647 L 709 647 L 708 647 L 707 647 L 706 647 L 705 648 L 704 649 L 704 650 L 704 651 L 704 652 L 704 653 L 704 654 L 705 655 L 706 655 L 707 655 L 708 655 L 709 655 L 710 655 L 711 655 L 712 655 L 713 655 L 714 655 L 715 655 L 716 655 L 717 655 L 718 655 L 719 655 L 720 655 L 721 655 L 722 655 L 723 655 L 724 655 L 725 656 L 726 657 L 726 658 L 726 659 L 726 660 L 725 661 L 725 662 L 724 663 L 724 664 L 724 665 L 723 666 L 723 667 L 723 668 L 723 669 L 722 670 L 722 671 L 722 672 L 721 673 L 721 674 L 721 675 L 720 676 L 720 677 L 720 678 L 720 679 L 719 680 L 719 681 L 719 682 L 719 683 L 718 684 L 718 685 L 717 686 L 717 687 L 717 688 L 717 689 L 716 690 L 716 691 L 716 692 L 716 693 L 715 694 L 714 695 L 714 696 L 714 697 L 714 698 L 713 699 L 713 700 L 713 701 L 713 702 L 712 703 L 712 704 L 711 705 L 711 706 L 711 707 L 711 708 L 710 709 L 710 710 L 710 711 L 710 712 L 709 713 L 709 714 L 709 715 L 708 716 L 708 717 L 708 718 L 707 719 L 707 720 L 707 721 L 707 722 L 706 723 L 706 724 L 705 725 L 704 726 L 703 727 L 702 727 L 701 727 L 700 727 L 699 727 L 698 727 L 697 727 L 696 727 L 695 726 L 694 726 L 693 726 L 692 726 L 691 726 L 690 726 L 689 726 L 688 726 L 687 726 L 686 726 L 685 726 L 684 726 L 683 726 L 682 726 L 681 726 L 680 726 L 679 726 L 678 726 L 677 726 L 676 726 L 675 726 L 674 726 L 673 726 L 672 726 L 671 726 L 670 726 L 669 726 L 668 726 L 667 726 L 666 726 L 665 726 L 664 726 L 663 726 L 662 726 L 661 726 L 660 727 L 659 728 L 658 729 L 658 730 L 657 731 L 657 732 L 657 733 L 657 734 L 657 735 L 656 736 L 656 737 L 656 738 L 655 739 L 655 740 L 655 741 L 655 742 L 656 743 L 657 743 L 658 743 L 659 744 L 660 744 L 661 744 L 662 744 L 663 744 L 664 743 L 665 743 L 666 743 L 667 743 L 668 743 L 669 743 L 670 743 L 671 743 L 672 743 L 673 743 L 674 743 L 675 743 L 676 743 L 677 743 L 678 743 L 679 743 L 680 743 L 681 743 L 682 743 L 683 743 L 684 743 L 685 743 L 686 743 L 687 743 L 688 743 L 689 743 L 690 743 L 691 743 L 692 743 L 693 743 L 694 743 L 695 744 L 696 745 L 696 746 L 695 747 L 695 748 L 695 749 L 695 750 L 695 751 L 694 752 L 694 753 L 694 754 L 694 755 L 693 756 L 693 757 L 692 758 L 692 759 L 692 760 L 692 761 L 691 762 L 691 763 L 690 764 L 689 765 L 688 765 L 687 765 L 686 765 L 685 765 L 684 765 L 683 765 L 682 765 L 681 765 L 680 765 L 679 766 L 678 766 L 677 766 L 676 766 L 675 766 L 674 767 L 673 768 L 673 769 L 672 770 L 672 771 L 671 772 L 671 773 L 671 774 L 670 775 L 670 776 L 670 777 L 670 778 L 669 779 L 669 780 L 669 781 L 669 782 L 668 783 L 668 784 L 667 785 L 667 786 L 667 787 L 667 788 L 666 789 L 666 790 L 666 791 L 666 792 L 666 793 L 665 794 L 665 795 L 664 796 L 664 797 L 664 798 L 664 799 L 663 800 L 663 801 L 663 802 L 663 803 L 662 804 L 661 805 L 660 805 L 659 806 L 658 806 L 657 806 L 656 806 L 655 806 L 654 806 L 653 806 L 652 805 L 651 805 L 650 805 L 649 805 L 648 805 L 647 805 L 646 805 L 645 805 L 644 805 L 643 805 L 642 805 L 641 805 L 640 805 L 639 804 L 638 804 L 637 804 L 636 804 L 635 805 L 634 806 L 634 807 L 633 808 L 633 809 L 633 810 L 634 811 L 635 812 L 636 813 L 637 813 L 638 813 L 639 813 L 640 813 L 641 813 L 642 813 L 643 813 L 644 813 L 645 813 L 646 813 L 647 813 L 648 813 L 649 813 L 650 813 L 651 813 L 652 813 L 653 813 L 654 813 L 655 813 L 656 813 L 657 813 L 658 814 L 659 815 L 658 816 L 658 817 L 658 818 L 658 819 L 658 820 L 657 821 L 657 822 L 657 823 L 657 824 L 656 825 L 656 826 L 655 827 L 655 828 L 655 829 L 655 830 L 654 831 L 654 832 L 654 833 L 654 834 L 653 835 L 653 836 L 653 837 L 652 838 L 652 839 L 652 840 L 651 841 L 651 842 L 651 843 L 651 844 L 650 845 L 650 846 L 651 847 L 652 848 L 653 848 L 654 848 L 655 848 L 656 848 L 657 848 L 658 848 L 659 848 L 660 848 L 661 848 L 662 848 L 663 848 L 664 848 L 665 848 L 666 848 L 667 848 L 668 848 L 669 849 L 670 850 L 670 851 L 669 852 L 669 853 L 668 854 L 667 855 L 666 855 L 665 855 L 664 855 L 663 855 L 662 855 L 661 855 L 660 855 L 659 855 L 658 855 L 657 855 L 656 855 L 655 855 L 654 855 L 653 855 L 652 855 L 651 855 L 650 855 L 649 855 L 648 855 L 647 855 L 646 855 L 645 855 L 644 855 L 643 855 L 642 855 L 641 855 L 640 855 L 639 855 L 638 855 L 637 855 L 636 855 L 635 855 L 634 855 L 633 855 L 632 855 L 631 855 L 630 855 L 629 855 L 628 856 L 627 856 L 626 857 L 626 858 L 626 859 L 625 860 L 625 861 L 625 862 L 624 863 L 624 864 L 624 865 L 623 866 L 623 867 L 623 868 L 622 869 L 622 870 L 622 871 L 621 872 L 621 873 L 621 874 L 620 875 L 620 876 L 620 877 L 620 878 L 619 879 L 619 880 L 619 881 L 620 882 L 621 883 L 622 883 L 623 883 L 624 883 L 625 883 L 626 883 L 627 883 L 628 883 L 629 883 L 630 883 L 631 883 L 632 883 L 633 883 L 634 882 L 635 882 L 636 882 L 637 882 L 638 882 L 639 882 L 640 882 L 641 882 L 642 882 L 643 882 L 644 882 L 645 882 L 646 882 L 647 882 L 648 882 L 649 882 L 650 882 L 651 882 L 652 882 L 653 882 L 654 882 L 655 882 L 656 882 L 657 882 L 658 883 L 659 883 L 660 883 L 661 883 L 662 883 L 663 883 L 664 883 L 665 883 L 666 883 L 667 883 L 668 883 L 669 884 L 670 885 L 669 886 L 669 887 L 669 888 L 669 889 L 668 890 L 668 891 L 667 892 L 667 893 L 667 894 L 667 895 L 666 896 L 666 897 L 666 898 L 666 899 L 665 900 L 665 901 L 664 902 L 664 903 L 664 904 L 664 905 L 663 906 L 663 907 L 663 908 L 663 909 L 663 910 L 662 911 L 662 912 L 661 913 L 661 914 L 661 915 L 661 916 L 660 917 L 659 918 L 658 919 L 657 919 L 656 919 L 655 919 L 654 919 L 653 919 L 652 919 L 651 919 L 650 919 L 649 919 L 648 919 L 647 919 L 646 919 L 645 919 L 644 919 L 643 919 L 642 919 L 641 919 L 640 919 L 639 919 L 638 919 L 637 919 L 636 919 L 635 919 L 634 919 L 633 919 L 632 919 L 631 920 L 630 920 L 629 921 L 629 922 L 628 923 L 628 924 L 627 925 L 627 926 L 627 927 L 626 928 L 626 929 L 626 930 L 626 931 L 625 932 L 625 933 L 624 934 L 624 935 L 624 936 L 623 937 L 623 938 L 623 939 L 622 940 L 622 941 L 622 942 L 621 943 L 620 944 L 619 944 L 618 944 L 617 944 L 616 944 L 615 944 L 614 944 L 613 944 L 612 944 L 611 944 L 610 944 L 609 944 L 608 944 L 607 944 L 606 944 L 605 944 L 604 944 L 603 944 L 602 945 L 601 946 L 601 947 L 600 948 L 600 949 L 600 950 L 599 951 L 599 952 L 599 953 L 598 954 L 598 955 L 598 956 L 598 957 L 597 958 L 597 959 L 597 960 L 598 961 L 599 962 L 600 962 L 601 962 L 602 963 L 603 963 L 604 963 L 605 963 L 606 963 L 607 963 L 608 963 L 609 963 L 610 963 L 611 963 L 612 963 L 613 964 L 614 965 L 614 966 L 614 967 L 614 968 L 614 969 L 613 970 L 613 971 L 613 972 L 613 973 L 612 974 L 612 975 L 611 976 L 611 977 L 611 978 L 611 979 L 610 980 L 610 981 L 610 982 L 609 983 L 609 984 L 608 985 L 608 986 L 608 987 L 608 988 L 607 989 L 607 990 L 607 991 L 607 992 L 606 993 L 606 994 L 605 995 L 605 996 L 605 997 L 605 998 L 604 999 L 603 1000 L 602 1001 L 601 1001 L 600 1001 L 599 1001 L 598 1001 L 597 1001 L 596 1001 L 595 1001 L 594 1001 L 593 1001 L 592 1001 L 591 1001 L 590 1001 L 589 1001 L 588 1001 L 587 1001 L 586 1001 L 585 1001 L 584 1001 L 583 1001 L 582 1001 L 581 1001 L 580 1001 L 579 1001 L 578 1001 L 577 1001 L 576 1002 L 575 1003 L 575 1004 L 575 1005 L 576 1006 L 577 1006 L 578 1007 L 579 1007 L 580 1007 L 581 1007 L 582 1007 L 583 1007 L 584 1007 L 585 1007 L 586 1007 L 587 1007 L 588 1008 L 589 1008 L 590 1008 L 591 1008 L 592 1008 L 593 1008 L 594 1009 L 595 1009 L 596 1009 L 597 1009 L 598 1009 L 599 1010 L 600 1011 L 600 1012 L 600 1013 L 599 1014 L 599 1015 L 599 1016 L 599 1017 L 598 1018 L 598 1019 L 598 1020 L 598 1021 L 597 1022 L 597 1023 L 597 1024 L 596 1025 L 596 1026 L 596 1027 L 595 1028 L 595 1029 L 595 1030 L 595 1031 L 594 1032 L 594 1033 L 594 1034 L 594 1035 L 593 1036 L 593 1037 L 592 1038 L 592 1039 L 591 1040 L 590 1041 L 589 1041 L 588 1041 L 587 1041 L 586 1041 L 585 1041 L 584 1041 L 583 1041 L 582 1041 L 581 1041 L 580 1041 L 579 1041 L 578 1041 L 577 1041 L 576 1041 L 575 1041 L 574 1041 L 573 1041 L 572 1041 L 571 1041 L 570 1041 L 569 1041 L 568 1040 L 567 1040 L 566 1040 L 565 1040 L 564 1040 L 563 1040 L 562 1040 L 561 1040 L 560 1040 L 559 1040 L 558 1040 L 557 1040 L 556 1040 L 555 1040 L 554 1040 L 553 1040 L 552 1040 L 551 1040 L 550 1040 L 549 1040 L 548 1040 L 547 1041 L 546 1041 L 545 1041 L 544 1042 L 544 1043 L 543 1044 L 543 1045 L 543 1046 L 542 1047 L 542 1048 L 542 1049 L 542 1050 L 542 1051 L 542 1052 L 542 1053 L 543 1054 L 544 1054 L 545 1054 L 546 1055 L 547 1055 L 548 1055 L 549 1055 L 550 1055 L 551 1055 L 552 1055 L 553 1055 L 554 1055 L 555 1055 L 556 1055 L 557 1055 L 558 1055 L 559 1055 L 560 1055 L 561 1055 L 562 1055 L 563 1055 L 564 1055 L 565 1055 L 566 1055 L 567 1055 L 568 1055 L 569 1055 L 570 1055 L 571 1055 L 572 1055 L 573 1055 L 574 1055 L 575 1055 L 576 1055 L 577 1055 L 578 1055 L 579 1055 L 580 1055 L 581 1055 L 582 1055 L 583 1055 L 584 1055 L 585 1055 L 586 1056 L 587 1057 L 586 1058 L 586 1059 L 586 1060 L 586 1061 L 585 1062 L 585 1063 L 585 1064 L 585 1065 L 584 1066 L 584 1067 L 583 1068 L 583 1069 L 583 1070 L 583 1071 L 582 1072 L 582 1073 L 582 1074 L 582 1075 L 581 1076 L 580 1077 L 579 1078 L 578 1078 L 577 1079 L 576 1079 L 575 1079 L 574 1078 L 573 1078 L 572 1078 L 571 1078 L 570 1078 L 569 1078 L 568 1078 L 567 1078 L 566 1078 L 565 1078 L 564 1078 L 563 1079 L 562 1079 L 561 1079 L 560 1079 L 559 1080 L 558 1081 L 558 1082 L 558 1083 L 558 1084 L 557 1085 L 557 1086 L 557 1087 L 558 1088 L 559 1089 L 560 1089 L 561 1089 L 562 1089 L 563 1089 L 564 1089 L 565 1089 L 566 1089 L 567 1089 L 568 1089 L 569 1089 L 570 1089 L 571 1089 L 572 1089 L 573 1089 L 574 1089 L 575 1090 L 576 1091 L 576 1092 L 576 1093 L 576 1094 L 575 1095 L 575 1096 L 575 1097 L 574 1098 L 574 1099 L 574 1100 L 574 1101 L 573 1102 L 573 1103 L 573 1104 L 573 1105 L 573 1106 L 573 1107 L 574 1108 L 574 1109 L 574 1110 L 575 1111 L 576 1112 L 576 1113 L 577 1114 L 578 1114 L 579 1115 L 580 1115 L 581 1115 L 582 1115 L 583 1115 L 584 1115 L 585 1115 L 586 1115 L 587 1115 L 588 1115 L 589 1115 L 590 1115 L 591 1115 L 592 1115 L 593 1115 L 594 1115 L 595 1115 L 596 1115 L 597 1115 L 598 1115 L 599 1115 L 600 1115 L 601 1115 L 602 1115 L 603 1115 L 604 1115 L 605 1115 L 606 1115 L 607 1115 L 608 1115 L 609 1115 L 610 1115 L 611 1115 L 612 1115 L 613 1115 L 614 1115 L 615 1115 L 616 1115 L 617 1115 L 618 1115 L 619 1115 L 620 1115 L 621 1115 L 622 1115 L 623 1115 L 624 1115 L 625 1115 L 626 1115 L 627 1115 L 628 1115 L 629 1115 L 630 1115 L 631 1115 L 632 1115 L 633 1115 L 634 1115 L 635 1115 L 636 1115 L 637 1115 L 638 1115 L 639 1115 L 640 1115 L 641 1115 L 642 1115 L 643 1115 L 644 1115 L 645 1115 L 646 1115 L 647 1115 L 648 1115 L 649 1115 L 650 1115 L 651 1115 L 652 1115 L 653 1115 L 654 1115 L 655 1115 L 656 1115 L 657 1115 L 658 1115 L 659 1115 L 660 1115 L 661 1115 L 662 1115 L 663 1115 L 664 1115 L 665 1115 L 666 1115 L 667 1115 L 668 1115 L 669 1115 L 670 1115 L 671 1115 L 672 1115 L 673 1115 L 674 1115 L 675 1115 L 676 1115 L 677 1115 L 678 1115 L 679 1115 L 680 1115 L 681 1115 L 682 1115 L 683 1115 L 684 1115 L 685 1115 L 686 1115 L 687 1115 L 688 1115 L 689 1115 L 690 1115 L 691 1115 L 692 1115 L 693 1115 L 694 1115 L 695 1115 L 696 1115 L 697 1115 L 698 1115 L 699 1115 L 700 1115 L 701 1115 L 702 1115 L 703 1115 L 704 1115 L 705 1115 L 706 1115 L 707 1115 L 708 1115 L 709 1114 L 710 1114 L 711 1113 L 712 1113 L 713 1112 L 714 1111 L 715 1110 L 715 1109 L 716 1108 L 717 1107 L 717 1106 L 717 1105 L 718 1104 L 718 1103 L 718 1102 L 719 1101 L 719 1100 L 719 1099 L 720 1098 L 720 1097 L 720 1096 L 720 1095 L 721 1094 L 721 1093 L 722 1092 L 722 1091 L 722 1090 L 723 1089 L 723 1088 L 723 1087 L 723 1086 L 724 1085 L 724 1084 L 724 1083 L 725 1082 L 725 1081 L 725 1080 L 726 1079 L 726 1078 L 726 1077 L 726 1076 L 726 1075 L 726 1074 L 725 1073 L 724 1073 L 723 1073 L 722 1072 L 721 1072 L 720 1072 L 719 1072 L 718 1072 L 717 1072 L 716 1072 L 715 1072 L 714 1072 L 713 1072 L 712 1072 L 711 1072 L 710 1072 L 709 1072 L 708 1072 L 707 1072 L 706 1072 L 705 1072 L 704 1071 L 703 1070 L 703 1069 L 704 1068 L 705 1067 L 706 1067 L 707 1067 L 708 1067 L 709 1067 L 710 1067 L 711 1067 L 712 1067 L 713 1067 L 714 1067 L 715 1067 L 716 1067 L 717 1067 L 718 1067 L 719 1067 L 720 1067 L 721 1067 L 722 1067 L 723 1067 L 724 1067 L 725 1067 L 726 1067 L 727 1067 L 728 1067 L 729 1067 L 730 1067 L 731 1067 L 732 1067 L 733 1067 L 734 1067 L 735 1067 L 736 1067 L 737 1067 L 738 1067 L 739 1067 L 740 1067 L 741 1067 L 742 1067 L 743 1067 L 744 1067 L 745 1067 L 746 1067 L 747 1067 L 748 1067 L 749 1067 L 750 1066 L 751 1065 L 751 1064 L 751 1063 L 752 1062 L 752 1061 L 752 1060 L 752 1059 L 751 1058 L 750 1057 L 749 1057 L 748 1057 L 747 1057 L 746 1057 L 745 1057 L 744 1057 L 743 1057 L 742 1057 L 741 1057 L 740 1057 L 739 1057 L 738 1057 L 737 1057 L 736 1057 L 735 1057 L 734 1057 L 733 1056 L 732 1055 L 732 1054 L 733 1053 L 733 1052 L 733 1051 L 734 1050 L 734 1049 L 734 1048 L 735 1047 L 735 1046 L 735 1045 L 736 1044 L 736 1043 L 736 1042 L 736 1041 L 737 1040 L 737 1039 L 737 1038 L 738 1037 L 738 1036 L 738 1035 L 739 1034 L 739 1033 L 739 1032 L 739 1031 L 740 1030 L 740 1029 L 740 1028 L 740 1027 L 741 1026 L 741 1025 L 741 1024 L 742 1023 L 742 1022 L 742 1021 L 743 1020 L 743 1019 L 743 1018 L 744 1017 L 744 1016 L 744 1015 L 745 1014 L 745 1013 L 745 1012 L 745 1011 L 746 1010 L 746 1009 L 746 1008 L 747 1007 L 747 1006 L 747 1005 L 748 1004 L 748 1003 L 748 1002 L 748 1001 L 749 1000 L 749 999 L 749 998 L 750 997 L 750 996 L 750 995 L 751 994 L 751 993 L 751 992 L 751 991 L 752 990 L 752 989 L 752 988 L 753 987 L 753 986 L 753 985 L 754 984 L 754 983 L 754 982 L 755 981 L 755 980 L 755 979 L 755 978 L 755 977 L 754 976 L 753 976 L 752 975 L 751 975 L 750 975 L 749 975 L 748 975 L 747 975 L 746 975 L 745 975 L 744 975 L 743 975 L 742 975 L 741 975 L 740 975 L 739 975 L 738 975 L 737 975 L 736 975 L 735 975 L 734 975 L 733 974 L 732 973 L 732 972 L 733 971 L 734 970 L 735 970 L 736 970 L 737 970 L 738 970 L 739 970 L 740 970 L 741 970 L 742 970 L 743 970 L 744 970 L 745 970 L 746 970 L 747 970 L 748 970 L 749 970 L 750 970 L 751 970 L 752 970 L 753 971 L 754 971 L 755 971 L 756 970 L 757 970 L 758 969 L 758 968 L 759 967 L 759 966 L 759 965 L 760 964 L 760 963 L 760 962 L 760 961 L 761 960 L 761 959 L 761 958 L 762 957 L 762 956 L 762 955 L 763 954 L 763 953 L 763 952 L 763 951 L 764 950 L 764 949 L 764 948 L 764 947 L 765 946 L 765 945 L 765 944 L 766 943 L 766 942 L 766 941 L 767 940 L 767 939 L 767 938 L 767 937 L 768 936 L 768 935 L 768 934 L 769 933 L 769 932 L 769 931 L 770 930 L 770 929 L 770 928 L 771 927 L 771 926 L 771 925 L 772 924 L 772 923 L 772 922 L 773 921 L 773 920 L 773 919 L 774 918 L 775 917 L 776 917 L 777 917 L 778 917 L 779 917 L 780 917 L 781 917 L 782 917 L 783 917 L 784 917 L 785 917 L 786 917 L 787 917 L 788 917 L 789 917 L 790 917 L 791 917 L 792 917 L 793 917 L 794 917 L 795 917 L 796 917 L 797 917 L 798 917 L 799 917 L 800 917 L 801 917 L 802 917 L 803 917 L 804 917 L 805 917 L 806 917 L 807 917 L 808 917 L 809 917 L 810 917 L 811 916 L 811 915 L 811 914 L 812 913 L 812 912 L 812 911 L 813 910 L 813 909 L 813 908 L 814 907 L 814 906 L 814 905 L 814 904 L 815 903 L 815 902 L 815 901 L 816 900 L 816 899 L 816 898 L 817 897 L 817 896 L 817 895 L 817 894 L 818 893 L 818 892 L 819 891 L 819 890 L 819 889 L 819 888 L 820 887 L 820 886 L 819 885 L 818 884 L 817 884 L 816 884 L 815 884 L 814 884 L 813 884 L 812 884 L 811 884 L 810 884 L 809 884 L 808 884 L 807 884 L 806 884 L 805 884 L 804 884 L 803 884 L 802 883 L 801 883 L 800 883 L 799 883 L 798 883 L 797 883 L 796 883 L 795 883 L 794 883 L 793 883 L 792 882 L 791 882 L 790 882 L 789 882 L 788 882 L 787 882 L 786 882 L 785 882 L 784 882 L 783 882 L 782 882 L 781 882 L 780 882 L 779 882 L 778 882 L 777 882 L 776 882 L 775 882 L 774 882 L 773 882 L 772 881 L 772 880 L 772 879 L 772 878 L 772 877 L 773 876 L 773 875 L 773 874 L 773 873 L 774 872 L 774 871 L 774 870 L 775 869 L 775 868 L 775 867 L 775 866 L 776 865 L 776 864 L 777 863 L 778 862 L 779 862 L 780 862 L 781 862 L 782 862 L 783 862 L 784 862 L 785 862 L 786 862 L 787 862 L 788 862 L 789 862 L 790 862 L 791 862 L 792 861 L 793 861 L 794 861 L 795 861 L 796 860 L 797 859 L 797 858 L 797 857 L 797 856 L 798 855 L 798 854 L 798 853 L 798 852 L 799 851 L 799 850 L 799 849 L 800 848 L 800 847 L 800 846 L 801 845 L 801 844 L 801 843 L 801 842 L 802 841 L 802 840 L 802 839 L 803 838 L 803 837 L 804 836 L 804 835 L 804 834 L 804 833 L 805 832 L 805 831 L 806 830 L 807 829 L 808 828 L 809 828 L 810 828 L 811 828 L 812 828 L 813 828 L 814 828 L 815 828 L 816 828 L 817 828 L 818 828 L 819 828 L 820 828 L 821 828 L 822 828 L 823 828 L 824 827 L 825 827 L 826 827 L 827 827 L 828 827 L 829 827 L 830 827 L 831 827 L 832 827 L 833 826 L 834 825 L 834 824 L 834 823 L 833 822 L 832 822 L 831 822 L 830 822 L 829 822 L 828 822 L 827 822 L 826 822 L 825 822 L 824 822 L 823 822 L 822 822 L 821 822 L 820 822 L 819 822 L 818 822 L 817 822 L 816 822 L 815 822 L 814 822 L 813 822 L 812 821 L 811 820 L 811 819 L 811 818 L 811 817 L 810 816 L 809 815 L 808 815 L 807 815 L 806 815 L 805 815 L 804 815 L 803 815 L 802 815 L 801 815 L 800 815 L 799 815 L 798 815 L 797 815 L 796 815 L 795 815 L 794 815 L 793 815 L 792 815 L 791 815 L 790 815 L 789 815 L 788 815 L 787 815 L 786 814 L 786 813 L 787 812 L 787 811 L 788 810 L 789 809 L 790 809 L 791 809 L 792 809 L 793 809 L 794 809 L 795 809 L 796 809 L 797 809 L 798 809 L 799 809 L 800 809 L 801 809 L 802 809 L 803 809 L 804 809 L 805 809 L 806 809 L 807 809 L 808 809 L 809 809 L 810 809 L 811 809 L 812 809 L 813 808 L 814 807 L 814 806 L 814 805 L 815 804 L 815 803 L 816 802 L 816 801 L 816 800 L 816 799 L 817 798 L 817 797 L 817 796 L 817 795 L 818 794 L 818 793 L 818 792 L 819 791 L 819 790 L 819 789 L 820 788 L 820 787 L 820 786 L 820 785 L 821 784 L 821 783 L 821 782 L 822 781 L 822 780 L 822 779 L 822 778 L 823 777 L 823 776 L 823 775 L 823 774 L 823 773 L 824 772 L 824 771 L 824 770 L 825 769 L 826 768 L 827 768 L 828 768 L 829 768 L 830 768 L 831 767 L 832 766 L 832 765 L 833 764 L 833 763 L 833 762 L 833 761 L 834 760 L 834 759 L 834 758 L 835 757 L 835 756 L 835 755 L 835 754 L 835 753 L 836 752 L 836 751 L 836 750 L 836 749 L 837 748 L 837 747 L 838 746 L 838 745 L 838 744 L 838 743 L 837 742 L 836 741 L 835 741 L 834 740 L 833 740 L 832 740 L 831 740 L 830 740 L 829 740 L 828 740 L 827 740 L 826 740 L 825 740 L 824 740 L 823 740 L 822 740 L 821 740 L 820 740 L 819 740 L 818 740 L 817 740 L 816 739 L 815 738 L 816 737 L 817 736 L 818 736 L 819 736 L 820 736 L 821 736 L 822 736 L 823 736 L 824 736 L 825 736 L 826 736 L 827 736 L 828 736 L 829 736 L 830 736 L 831 736 L 832 736 L 833 736 L 834 736 L 835 736 L 836 736 L 837 736 L 838 736 L 839 736 L 840 736 L 841 736 L 842 736 L 843 736 L 844 736 L 845 736 L 846 736 L 847 736 L 848 736 L 849 735 L 850 735 L 851 735 L 852 734 L 852 733 L 853 732 L 853 731 L 853 730 L 854 729 L 854 728 L 854 727 L 854 726 L 855 725 L 855 724 L 855 723 L 856 722 L 856 721 L 856 720 L 857 719 L 857 718 L 857 717 L 857 716 L 858 715 L 858 714 L 858 713 L 859 712 L 859 711 L 859 710 L 860 709 L 860 708 L 860 707 L 861 706 L 861 705 L 861 704 L 861 703 L 862 702 L 862 701 L 863 700 L 863 699 L 863 698 L 863 697 L 864 696 L 864 695 L 864 694 L 864 693 L 864 692 L 865 691 L 865 690 L 865 689 L 866 688 L 866 687 L 866 686 L 866 685 L 867 684 L 867 683 L 867 682 L 867 681 L 868 680 L 868 679 L 868 678 L 869 677 L 869 676 L 869 675 L 869 674 L 870 673 L 870 672 L 870 671 L 870 670 L 870 669 L 869 668 L 868 668 L 867 668 L 866 668 L 865 668 L 864 668 L 863 668 L 862 668 L 861 667 L 860 667 L 859 667 L 858 667 L 857 667 L 856 667 L 855 667 L 854 667 L 853 667 L 852 667 L 851 667 L 850 667 L 849 666 L 848 665 L 849 664 L 850 663 L 851 663 L 852 663 L 853 662 L 854 662 L 855 662 L 856 662 L 857 662 L 858 662 L 859 662 L 860 662 L 861 662 L 862 662 L 863 662 L 864 662 L 865 662 L 866 662 L 867 662 L 868 662 L 869 662 L 870 662 L 871 662 L 872 662 L 873 661 L 874 660 L 874 659 L 875 658 L 875 657 L 875 656 L 875 655 L 876 654 L 876 653 L 876 652 L 876 651 L 877 650 L 877 649 L 877 648 L 878 647 L 878 646 L 878 645 L 878 644 L 879 643 L 879 642 L 879 641 L 879 640 L 880 639 L 880 638 L 880 637 L 881 636 L 881 635 L 881 634 L 882 633 L 882 632 L 882 631 L 882 630 L 883 629 L 883 628 L 883 627 L 884 626 L 884 625 L 884 624 L 885 623 L 885 622 L 885 621 L 885 620 L 886 619 L 886 618 L 886 617 L 887 616 L 887 615 L 887 614 L 888 613 L 888 612 L 888 611 L 889 610 L 889 609 L 889 608 L 889 607 L 890 606 L 890 605 L 891 604 L 891 603 L 891 602 L 891 601 L 892 600 L 892 599 L 892 598 L 892 597 L 893 596 L 893 595 L 894 594 L 894 593 L 894 592 L 894 591 L 894 590 L 895 589 L 895 588 L 895 587 L 896 586 L 897 585 L 898 585 L 899 585 L 900 585 L 901 585 L 902 585 L 903 585 L 904 585 L 905 585 L 906 585 L 907 585 L 908 585 L 909 585 L 910 585 L 911 585 L 912 585 L 913 585 L 914 584 L 915 584 L 915 583 L 916 582 L 916 581 L 916 580 L 916 579 L 916 578 L 915 577 L 914 577 L 913 577 L 912 577 L 911 577 L 910 577 L 909 577 L 908 577 L 907 577 L 906 577 L 905 577 L 904 577 L 903 577 L 902 577 L 901 577 L 900 577 L 899 577 L 898 577 L 897 577 L 896 577 L 895 576 L 894 576 L 893 576 L 892 576 L 891 576 L 890 576 L 889 576 L 888 576 L 887 576 L 886 576 L 885 576 L 884 576 L 883 576 L 882 576 L 881 576 L 880 576 L 879 576 L 878 576 L 877 576 L 876 576 L 875 575 L 874 574 L 874 573 L 875 572 L 875 571 L 875 570 L 875 569 L 876 568 L 876 567 L 876 566 L 877 565 L 878 564 L 879 564 L 880 564 L 881 564 L 882 564 L 883 564 L 884 564 L 885 564 L 886 564 L 887 564 L 888 564 L 889 564 L 890 564 L 891 564 L 892 564 L 893 564 L 894 564 L 895 564 L 896 564 L 897 564 L 898 564 L 899 564 L 900 564 L 901 564 L 902 563 L 903 562 L 904 561 L 904 560 L 904 559 L 905 558 L 905 557 L 905 556 L 906 555 L 906 554 L 906 553 L 906 552 L 907 551 L 907 550 L 907 549 L 908 548 L 909 547 L 910 547 L 911 547 L 912 547 L 913 548 L 914 548 L 915 548 L 916 548 L 917 548 L 918 548 L 919 548 L 920 548 L 921 548 L 922 548 L 923 548 L 924 547 L 925 546 L 925 545 L 925 544 L 925 543 L 925 542 L 924 541 L 923 541 L 922 541 L 921 541 L 920 541 L 919 541 L 918 541 L 917 541 L 916 541 L 915 541 L 914 541 L 913 541 L 912 541 L 911 540 L 910 539 L 910 538 L 910 537 L 911 536 L 911 535 L 911 534 L 912 533 L 912 532 L 912 531 L 913 530 L 913 529 L 913 528 L 913 527 L 914 526 L 914 525 L 914 524 L 914 523 L 914 522 L 915 521 L 916 520 L 916 519 L 916 518 L 916 517 L 917 516 L 917 515 L 917 514 L 918 513 L 919 512 L 920 512 L 921 512 L 922 512 L 923 512 L 924 512 L 925 512 L 926 512 L 927 512 L 928 512 L 929 512 L 930 512 L 931 512 L 932 512 L 933 512 L 934 511 L 935 510 L 935 509 L 935 508 L 935 507 L 935 506 L 935 505 L 934 504 L 933 504 L 932 504 L 931 504 L 930 504 L 929 504 L 928 504 L 927 504 L 926 504 L 925 504 L 924 504 L 923 504 L 922 504 L 921 503 L 920 502 L 920 501 L 920 500 L 920 499 L 921 498 L 921 497 L 922 496 L 922 495 L 922 494 L 922 493 L 923 492 L 923 491 L 923 490 L 923 489 L 923 488 L 924 487 L 924 486 L 924 485 L 924 484 L 923 483 L 922 482 L 921 482 L 920 482 L 919 482 L 918 482 L 917 482 L 916 482 L 915 482 L 914 482 L 913 482 L 912 482 L 911 482 L 910 482 L 909 482 L 908 482 L 907 482 L 906 482 L 905 482 L 904 482 L 903 482 L 902 482 L 901 481 L 900 480 L 900 479 L 900 478 L 901 477 L 902 476 L 903 476 L 904 476 L 905 476 L 906 476 L 907 476 L 908 476 L 909 476 L 910 476 L 911 476 L 912 476 L 913 476 L 914 476 L 915 476 L 916 476 L 917 476 L 918 476 L 919 476 L 920 476 L 921 476 L 922 476 L 923 476 L 924 476 L 925 476 L 926 476 L 927 476 L 928 476 L 929 476 L 930 476 L 931 476 L 932 476 L 933 476 L 934 476 L 935 476 L 936 476 L 937 476 L 938 476 L 939 475 L 940 474 L 940 473 L 940 472 L 940 471 L 940 470 L 940 469 L 940 468 L 940 467 L 940 466 L 940 465 L 940 464 L 940 463 L 940 462 L 939 461 L 939 460 L 939 459 L 939 458 L 938 457 L 938 456 L 938 455 L 937 454 L 937 453 L 936 452 L 935 451 L 935 450 L 934 449 L 933 448 L 932 447 L 931 446 L 930 445 L 929 444 L 928 443 L 927 443 L 926 442 L 925 441 L 924 441 L 923 441 L 922 440 L 921 440 L 920 439 L 919 439 L 918 439 L 917 439 L 916 438 L 915 438 L 914 438 L 913 438 L 912 438 L 911 438 L 910 438 L 909 438 L 908 438 L 907 438 L 906 438 L 905 438 L 904 438 L 903 438 L 902 438 L 901 438 L 900 438 L 899 438 L 898 438 L 897 438 L 896 438 L 895 438 L 894 438 L 893 438 L 892 438 L 891 438 L 890 438 L 889 438 L 888 438 L 887 438 L 886 438 L 885 438 L 884 438 L 883 438 L 882 438 L 881 438 L 880 438 L 879 438 L 878 438 L 877 438 L 876 438 L 875 438 L 874 438 L 873 438 L 872 438 L 871 438 L 870 438 L 869 438 L 868 438 L 867 438 L 866 438 L 865 438 L 864 438 L 863 438 L 862 438 L 861 438 L 860 438 L 859 438 L 858 438 L 857 438 L 856 438 L 855 438 L 854 438 L 853 438 L 852 438 L 851 438 L 850 438 L 849 438 L 848 438 L 847 438 L 846 438 L 845 438 L 844 438 L 843 438 L 842 438 L 841 438 L 840 438 L 839 438 L 838 438 L 837 438 L 836 438 L 835 438 L 834 438 L 833 438 L 832 438 L 831 438 L 830 438 L 829 438 L 828 438 L 827 438 L 826 438 L 825 438 L 824 438 L 823 438 L 822 438 L 821 438 L 820 438 L 819 438 L 818 438 L 817 438 L 816 438 L 815 438 L 814 438 L 813 438 L 812 438 L 811 438 L 810 438 L 809 438 L 808 438 L 807 438 L 806 438 L 805 438 Z" fill="#ffffff" fill-rule="evenodd" stroke="none" />
  </g>
</svg>
